<?xml version="1.0" encoding="UTF-8" standalone="no"?>
<!-- Created with Inkscape (http://www.inkscape.org/) -->

<svg
   version="1.1"
   id="svg105"
   width="208.37492"
   height="230.29614"
   viewBox="0 0 208.37492 230.29614"
   sodipodi:docname="beebak_body.svg"
   inkscape:export-filename="beebak.svg"
   inkscape:export-xdpi="96"
   inkscape:export-ydpi="96"
   xmlns:inkscape="http://www.inkscape.org/namespaces/inkscape"
   xmlns:sodipodi="http://sodipodi.sourceforge.net/DTD/sodipodi-0.dtd"
   xmlns:xlink="http://www.w3.org/1999/xlink"
   xmlns="http://www.w3.org/2000/svg"
   xmlns:svg="http://www.w3.org/2000/svg">
  <defs
     id="defs109" />
  <sodipodi:namedview
     id="namedview107"
     pagecolor="#ffffff"
     bordercolor="#666666"
     borderopacity="1.0"
     inkscape:showpageshadow="2"
     inkscape:pageopacity="0.0"
     inkscape:pagecheckerboard="0"
     inkscape:deskcolor="#d1d1d1"
     showgrid="false" />
  <g
     inkscape:groupmode="layer"
     inkscape:label="Image"
     id="g111"
     transform="translate(-30.759455,-9.203044)">
    <image
       width="327.67999"
       height="327.67999"
       preserveAspectRatio="none"
       xlink:href="beebak_body.png"
       id="image113"
       style="display:none" />
    <path
       style="fill:#f7d90c;stroke:none;stroke-width:0.327118"
       d="m 131.54115,74.233889 v 1.029427 c -11.52286,1.872529 -16.39383,17.204482 -11.45737,27.794544 1.67552,3.59408 3.46019,6.88996 4.9087,10.63742 0.45934,1.1883 1.63685,3.11539 1.35277,4.44747 -0.40789,1.9106 -3.39222,3.92143 -4.50612,5.50366 -2.94316,4.18118 -5.15911,8.7817 -6.85209,13.72569 -6.07406,17.73841 -5.62594,39.59041 1.18624,56.96166 3.01988,7.70081 8.3215,16.4228 16.3034,18.30013 11.40622,2.6827 19.28365,-8.11873 23.53156,-18.30013 7.23753,-17.34756 7.28961,-39.86869 1.31597,-57.64794 -2.16044,-6.43015 -6.17384,-15.89093 -12.37388,-18.52968 3.24253,-10.96547 10.1729,-24.459893 3.36135,-35.343688 -1.42793,-2.281555 -3.36478,-4.285164 -5.54424,-5.674205 -1.5249,-0.971436 -3.48545,-1.103546 -4.36578,-2.904358 5.8093,-0.05287 17.78745,-3.462309 16.93144,-12.009989 -0.78677,-7.853503 -10.70958,-10.503937 -16.6196,-10.950026 -6.62382,-0.499615 -15.93479,0.177752 -20.83569,5.8348 -8.53916,9.857799 6.94471,16.190151 13.66334,17.125215 m -2.18289,3.774568 -0.31184,0.343143 0.31184,-0.343143 m -8.73157,11.666846 -0.31184,0.343143 0.31184,-0.343143 m 23.90796,5.376011 -0.10416,0.228539 0.10416,-0.228539 m -3.9501,14.183116 -0.31184,0.34314 0.31184,-0.34314 m -0.31184,2.40199 -0.31184,0.34314 z"
       id="path231" />
    <path
       style="display:inline;fill:#000000;stroke-width:0.343883"
       d="m 58.608541,238.99341 c -3.592789,-1.29228 -2.98553,-4.32152 2.112637,-10.53869 1.480828,-1.80584 3.112558,-4.01277 3.626077,-4.90428 0.513517,-0.89152 2.241353,-3.59887 3.839637,-6.01633 1.598274,-2.41746 2.905967,-4.60964 2.905967,-4.87149 0,-0.26188 0.226607,-0.82549 0.503575,-1.25245 0.478704,-0.73799 0.436029,-0.81848 -0.863709,-1.62952 -1.517192,-0.94674 -4.022854,-3.72098 -4.889258,-5.41335 -0.309023,-0.60362 -0.748132,-2.19473 -0.975796,-3.53578 -0.5325,-3.13663 -0.08531,-6.41404 1.768091,-12.95914 1.751635,-6.18558 2.757149,-8.8665 5.000993,-13.33365 1.002552,-1.99594 3.060442,-6.19516 4.573079,-9.33162 3.037219,-6.29765 5.414003,-9.85985 10.259549,-15.37644 3.237275,-3.68561 5.824776,-5.96917 9.166412,-8.08973 1.787342,-1.13419 1.790603,-1.13958 3.017024,-4.9716 1.430231,-4.46879 2.070911,-5.50951 3.828841,-6.2196 1.27001,-0.51298 3.59515,-0.38447 5.39345,0.29807 1.04747,0.39758 3.33326,2.03162 5.00039,3.5746 0.82535,0.76389 1.60008,1.39306 1.72161,1.39814 0.12151,0.005 0.71683,-0.77135 1.32293,-1.7254 1.24502,-1.9598 2.52176,-3.10398 3.46358,-3.10398 0.79835,0 0.79785,0.18344 -0.003,1.32912 -2.67624,3.82616 -5.91471,12.52399 -7.4054,19.88923 l -0.20237,0.99983 -1.09322,-1.03139 c -0.60128,-0.56727 -1.63212,-1.40004 -2.29078,-1.85058 -0.65866,-0.45055 -2.0829,-1.66536 -3.16498,-2.69957 l -1.96743,-1.88039 v 6.37042 c 0,6.65885 -0.5923,12.91233 -1.67964,17.73356 -2.689135,11.92374 -6.534003,23.84296 -8.814458,27.32513 -2.812826,4.2951 -6.374062,8.33366 -10.108079,11.46294 -0.639229,0.53567 -1.007191,1.32268 -1.292746,2.7649 -0.219549,1.10885 -0.682973,3.02701 -1.029828,4.26258 -0.346864,1.23558 -0.8097,3.17966 -1.028533,4.3202 -0.218823,1.14053 -0.777079,3.35005 -1.240566,4.91004 -0.736211,2.47784 -1.044744,3.01595 -2.441123,4.25752 -0.879116,0.78164 -2.681007,2.13584 -4.004195,3.00934 -1.323197,0.87349 -2.720355,1.87061 -3.104794,2.21577 -0.999471,0.89738 -7.788531,5.13731 -8.197166,5.11931 -0.188189,-0.008 -0.956019,-0.23584 -1.706279,-0.50572 z M 209.3403,236.92003 c -1.9679,-1.24203 -3.89255,-2.54066 -4.27701,-2.88584 -0.38443,-0.34515 -1.78159,-1.34227 -3.10479,-2.21576 -1.32319,-0.87349 -3.12508,-2.2277 -4.00419,-3.00934 -1.39638,-1.24156 -1.70492,-1.77968 -2.44113,-4.25751 -0.46349,-1.56001 -1.02174,-3.76951 -1.24056,-4.91004 -0.21884,-1.14054 -0.68167,-3.08461 -1.02852,-4.3202 -0.34687,-1.23557 -0.81029,-3.15372 -1.02983,-4.26258 -0.28556,-1.44222 -0.65351,-2.22924 -1.29274,-2.7649 -3.73401,-3.12927 -7.29525,-7.16784 -10.10808,-11.46296 -2.39853,-3.66244 -6.51091,-16.59413 -8.95756,-28.16765 -0.96748,-4.57656 -1.52831,-11.43505 -1.53316,-18.74962 -0.002,-3.1578 -0.1333,-5.09785 -0.34473,-5.09785 -0.18775,0 -0.72446,0.80216 -1.19268,1.78254 -1.63455,3.42249 -6.51423,9.21777 -7.18501,8.53321 -0.0647,-0.066 -0.45685,-2.21969 -0.87143,-4.7859 -1.29756,-8.03211 -2.77556,-12.34483 -5.80381,-16.93515 -0.94053,-1.42567 -1.54863,-2.64672 -1.35136,-2.71351 0.19726,-0.0667 0.89404,-0.02 1.54838,0.10415 1.09615,0.20771 2.36391,1.49609 3.54172,3.59927 0.31471,0.56193 1.73288,0.21814 1.73288,-0.42008 0,-0.52281 3.30247,-3.79649 4.40588,-4.36748 1.07577,-0.55668 4.93016,-0.14404 6.57581,0.704 1.64835,0.84941 2.12492,1.67275 3.55549,6.14262 1.21365,3.79209 1.22035,3.80308 3.00562,4.93598 3.34164,2.12055 5.92915,4.4041 9.16642,8.08973 4.84554,5.51659 7.22231,9.07878 10.25954,15.37642 1.51263,3.13646 3.57052,7.3357 4.57307,9.33162 2.24385,4.46715 3.24937,7.14806 5.001,13.33366 1.85344,6.5451 2.30059,9.8225 1.76812,12.95913 -0.22768,1.34105 -0.6668,2.93219 -0.97582,3.53578 -0.8664,1.69238 -3.37207,4.46662 -4.88927,5.41335 -1.29973,0.81106 -1.34241,0.89157 -0.86371,1.62953 0.27698,0.42696 0.50358,0.99057 0.50358,1.25245 0,0.26185 1.3077,2.45402 2.90597,4.87148 1.59827,2.41748 3.32612,5.12482 3.83964,6.01635 0.51352,0.89151 2.14527,3.09843 3.62608,4.90427 5.50781,6.71671 5.82178,9.8399 1.09068,10.85 -0.86368,0.1844 -1.59393,-0.139 -4.60449,-2.03907 z m -74.60564,-25.8705 c -0.84683,-0.23288 -2.29984,-0.80561 -3.22887,-1.27273 -1.84673,-0.92858 -7.35589,-5.98402 -6.9631,-6.38964 0.43268,-0.4468 26.85921,-1.75966 27.26054,-1.35427 0.32164,0.32488 -2.89337,3.34813 -6.41347,6.03096 -4.52387,3.44785 -6.72815,4.0655 -10.6551,2.98568 z m -16.57867,-15.96114 c -0.85397,-2.06449 -2.58228,-7.72928 -2.58228,-8.46384 0,-0.53942 0.17121,-0.65582 0.76986,-0.5234 2.48268,0.54912 20.01869,1.31862 30.28117,1.32876 6.44544,0.006 11.719,0.0618 11.719,0.12274 0,0.72291 -2.20206,6.76054 -2.5029,6.86252 -0.22301,0.0755 -5.17861,0.30512 -11.01244,0.51005 -5.83384,0.20493 -13.84037,0.60051 -17.79232,0.87908 -3.95195,0.27856 -7.45276,0.50687 -7.77956,0.50733 -0.35741,3.6e-4 -0.79596,-0.48692 -1.10053,-1.22324 z m 13.49925,-20.21083 c -12.48402,-0.71845 -17.54968,-1.17994 -18.00549,-1.64037 -0.3489,-0.35243 -0.47116,-1.57607 -0.47116,-4.71555 v -4.23963 l 13.60087,-0.23466 c 13.11173,-0.22623 25.52997,-0.66525 31.52637,-1.11453 l 2.87044,-0.21508 -0.21049,2.36792 c -0.11576,1.30239 -0.31079,4.01871 -0.43337,6.03632 l -0.22288,3.66836 -2.57424,0.2198 c -3.26733,0.27899 -20.4459,0.19165 -26.08005,-0.13258 z m -17.79233,-23.53147 c 0,-0.60533 2.42479,-9.19232 3.28086,-11.61859 0.60333,-1.71006 0.70924,-1.81425 2.01405,-1.98129 3.57144,-0.45726 26.52153,-1.56231 32.55411,-1.56753 l 3.80411,-0.003 1.26796,3.34615 c 1.20527,3.1807 3.18574,10.6858 2.89426,10.96802 -0.35706,0.34571 -16.73488,0.9567 -30.50367,1.13801 -12.98006,0.17092 -15.31168,0.12805 -15.31168,-0.28149 z m 7.57311,-20.10104 c 0.22342,-0.42477 1.42084,-1.79503 2.66098,-3.04504 2.59978,-2.62054 4.83885,-3.81257 8.65582,-4.60823 5.76052,-1.20079 9.56978,-0.41948 14.64177,3.00317 1.62048,1.09349 4.10594,3.34545 4.10594,3.72013 0,0.12126 -3.3489,0.32226 -7.442,0.44666 -7.94614,0.24148 -19.15616,0.80585 -21.5653,1.08564 -1.42578,0.1656 -1.45294,0.15011 -1.05721,-0.60233 z m -11.50796,-22.94248 c -0.37637,-0.0981 -2.30102,-0.62661 -4.27701,-1.1742 -1.97597,-0.54759 -4.57556,-1.23683 -5.776842,-1.53168 -2.48629,-0.61015 -7.509788,-3.50764 -8.527083,-4.91825 -0.621556,-0.861875 -0.722739,-0.88841 -1.749957,-0.45861 -1.244972,0.52088 -6.704408,0.32102 -14.227306,-0.520866 -2.446444,-0.273774 -5.877276,-0.499263 -7.624058,-0.5011 -5.03907,-0.005 -6.838961,-1.205486 -6.490524,-4.328081 0.219443,-1.966521 1.487553,-3.665827 3.420555,-4.583619 3.809655,-1.808843 10.028987,-1.928706 13.945461,-0.268769 4.591694,1.946118 6.177147,2.338185 8.658205,2.14112 1.995158,-0.158464 2.508099,-0.343702 3.577073,-1.291747 0.686363,-0.608717 2.101793,-1.511302 3.145416,-2.005748 2.607892,-1.235554 7.31179,-1.284198 10.62259,-0.109872 4.37491,1.551768 8.28316,4.998945 11.49668,10.140389 0.58344,0.933459 1.13257,1.769673 1.22026,1.858253 0.0877,0.0885 0.79312,-0.45403 1.56764,-1.205726 1.30454,-1.266183 1.48525,-1.33968 2.4548,-0.998285 0.5756,0.202682 1.4215,0.818586 1.87973,1.368668 0.94786,1.137843 1.91051,4.148093 1.91051,5.974233 0,1.82556 -0.76366,2.11021 -5.81673,2.16791 -2.35235,0.0268 -5.27781,0.13338 -6.50104,0.2367 -1.22322,0.10331 -2.53199,0.10747 -2.90837,0.009 z m 39.69058,-0.46906 c -0.75275,-0.13588 -1.94603,-0.5043 -2.65174,-0.81869 -1.13247,-0.50452 -1.2831,-0.71443 -1.2831,-1.78813 0,-1.50477 1.30028,-4.16081 2.84899,-5.819493 0.97284,-1.041933 1.40038,-1.249502 2.57348,-1.249502 1.28114,0 1.46533,0.11579 2.0617,1.29605 0.76223,1.508575 1.91401,2.660315 2.37352,2.373485 0.17618,-0.11 0.73492,-1.05592 1.24163,-2.102084 0.50673,-1.046143 1.41159,-2.510318 2.01083,-3.253723 0.59922,-0.743405 1.49334,-1.879232 1.98694,-2.524053 1.22314,-1.597956 5.67195,-4.648487 8.07838,-5.539301 1.48498,-0.549711 2.82006,-0.738062 5.39492,-0.761066 3.00782,-0.02689 3.65108,0.07819 5.31912,0.868401 1.04361,0.494445 2.45904,1.397033 3.14541,2.005747 1.06898,0.948044 1.58191,1.133284 3.57706,1.291749 2.48106,0.197066 4.06653,-0.195004 8.6582,-2.141121 3.91648,-1.659936 10.13581,-1.540073 13.94547,0.26877 1.93301,0.917794 3.20113,2.617099 3.42057,4.583616 0.34845,3.122597 -1.45147,4.322803 -6.49054,4.328084 -1.74678,0.002 -5.17762,0.227327 -7.62407,0.50111 -7.52288,0.841881 -12.98231,1.041741 -14.22728,0.52085 -1.02723,-0.429784 -1.12842,-0.403269 -1.74997,0.458601 -1.01729,1.41065 -6.04079,4.30812 -8.52708,4.91827 -1.20129,0.29484 -3.87788,1.03473 -5.94795,1.64424 -3.61789,1.06523 -4.01571,1.10968 -10.2648,1.14672 -3.57558,0.0211 -7.11693,-0.0727 -7.86969,-0.20853 z m 0.88226,-12.630184 c -2.21702,-2.02314 -3.42787,-6.847012 -2.35581,-9.385126 1.05084,-2.487859 2.44901,-2.853746 3.89759,-1.019954 0.80262,1.016055 1.00908,1.110829 1.70111,0.780951 1.16206,-0.553947 1.82653,-3.337881 2.23594,-9.368079 0.42705,-6.290158 1.05394,-8.627676 3.80019,-14.170234 2.64353,-5.335254 5.37492,-9.484865 7.96521,-12.101023 3.30576,-3.338765 5.50167,-4.021203 7.82182,-2.430821 1.11463,0.764046 1.26848,0.791512 1.55333,0.277399 0.19581,-0.353435 0.18837,-0.906453 -0.0195,-1.45287 -0.69743,-1.832841 -1.4204,-7.953777 -1.43092,-12.11473 -0.0244,-9.665004 2.7639,-17.858714 6.74842,-19.830981 1.30397,-0.645447 1.3211,-0.644648 2.86255,0.132954 2.04547,1.031878 3.78552,2.940432 4.24706,4.658358 0.31416,1.169322 0.27594,1.55111 -0.24265,2.424707 -2.85826,4.814791 -3.384,7.462508 -3.39709,17.107965 -0.009,6.98305 -0.0751,7.873302 -0.64364,8.726789 -0.34819,0.522744 -0.75544,0.950443 -0.90497,0.950443 -0.14953,0 -0.93718,1.205333 -1.75032,2.678519 -1.42515,2.581984 -1.47954,2.790617 -1.50917,5.789058 -0.023,2.343802 -0.20959,3.5365 -0.75638,4.838617 -0.3991,0.950442 -1.12725,2.816755 -1.61809,4.147374 -1.52932,4.145928 -2.0674,5.075472 -5.18493,8.957155 -1.66661,2.075106 -3.67432,4.641302 -4.4616,5.702653 -0.78729,1.061353 -2.15456,2.740495 -3.03836,3.731416 -0.88381,0.990924 -1.84271,2.157375 -2.1309,2.592116 -0.61946,0.934468 -4.35174,5.318449 -5.40255,6.345877 -0.40321,0.394251 -0.98231,1.101007 -1.28692,1.570563 -0.39693,0.611927 -0.90874,0.877913 -1.80679,0.938999 -0.68912,0.04693 -1.52889,0.234398 -1.86615,0.416706 -1.03185,0.557797 -1.62773,0.381627 -3.02645,-0.894801 z m -34.23233,-0.182438 c -0.44283,-0.650861 -1.06013,-1.416675 -1.37176,-1.701806 -0.78952,-0.72238 -4.57582,-5.188876 -5.21127,-6.147484 -0.28821,-0.434742 -1.2471,-1.601194 -2.13091,-2.592115 -0.88381,-0.990924 -2.25106,-2.670065 -3.03837,-3.731416 -0.78727,-1.061354 -2.79498,-3.627549 -4.46158,-5.702654 -3.117528,-3.881685 -3.655611,-4.811229 -5.184941,-8.957154 -0.490839,-1.330619 -1.218977,-3.196934 -1.618086,-4.147375 -0.546793,-1.302117 -0.733228,-2.494815 -0.756377,-4.838616 -0.02962,-2.998441 -0.08404,-3.207074 -1.509162,-5.789059 -0.813145,-1.473187 -1.600798,-2.678532 -1.750333,-2.678532 -0.149523,0 -0.556769,-0.427687 -0.904971,-0.950441 -0.56852,-0.853476 -0.634183,-1.743727 -0.643646,-8.72679 -0.01305,-9.645446 -0.538817,-12.293163 -3.397075,-17.107955 -0.518608,-0.873595 -0.556812,-1.255382 -0.242655,-2.424707 0.461553,-1.717925 2.201599,-3.62649 4.247076,-4.658357 1.541431,-0.777603 1.558571,-0.778402 2.862534,-0.132955 3.984531,1.972267 6.772821,10.165978 6.748405,19.830973 -0.0107,4.160962 -0.733459,10.281898 -1.430892,12.114739 -0.207915,0.546418 -0.215359,1.099425 -0.01956,1.45287 0.284838,0.514114 0.438694,0.48665 1.553322,-0.277409 2.320141,-1.590372 4.516051,-0.907932 7.821821,2.430832 2.59029,2.616156 5.32166,6.765767 7.9652,12.101023 2.74564,5.541317 3.373,7.880074 3.80095,14.170233 0.1955,2.873294 0.62833,6.151208 0.971,7.353507 l 0.61829,2.169301 1.16954,-1.218857 c 1.34486,-1.401547 2.03186,-1.515902 2.94969,-0.49099 0.52247,0.583421 0.6403,1.197362 0.59379,3.093905 -0.0478,1.947879 -0.25941,2.749857 -1.19755,4.537694 -0.62675,1.194414 -1.46958,2.335544 -1.87292,2.535844 -0.40336,0.200299 -0.97986,0.570835 -1.28113,0.823401 -0.30129,0.252552 -0.92822,0.385711 -1.3932,0.29594 -0.46499,-0.08977 -0.89822,-0.003 -0.96276,0.19228 -0.0645,0.195527 -0.47963,-0.17701 -0.92248,-0.82787 z m 3.73467,-25.154969 c -2.01525,-1.309094 -2.87496,-2.301184 -3.77488,-4.356114 -0.6533,-1.491839 -0.72073,-2.08593 -0.53565,-4.719467 0.12162,-1.730906 0.52293,-3.853041 0.94318,-4.987608 1.07844,-2.911486 3.77169,-5.941422 6.56352,-7.383988 2.16745,-1.119955 2.35616,-1.158005 3.71024,-0.748225 2.10091,0.635802 3.99271,2.0321 4.91703,3.629157 1.00481,1.7361 1.64894,7.07895 1.16734,9.682827 -0.60981,3.297171 -4.05379,7.713035 -7.06432,9.05788 -2.45754,1.097824 -4.0396,1.051252 -5.92646,-0.174462 z m 27.54771,-0.190282 c -2.92631,-1.344843 -6.37353,-5.815445 -6.96969,-9.038752 -0.48161,-2.603878 0.16253,-7.946724 1.16733,-9.682839 0.92432,-1.597043 2.81614,-2.993342 4.91704,-3.629144 1.35408,-0.409792 1.54279,-0.371731 3.71025,0.748225 2.79181,1.442567 5.48506,4.472502 6.5635,7.383987 0.42026,1.134568 0.82157,3.256703 0.9432,4.98761 0.18507,2.633535 0.11763,3.227626 -0.53567,4.719464 -0.89991,2.054934 -1.75962,3.047023 -3.77487,4.356116 -1.87685,1.219202 -3.60892,1.263895 -6.02109,0.155333 z m -9.61416,-16.277915 c -0.2667,-0.702043 0.45906,-6.752808 1.11896,-9.328852 1.59513,-6.22688 6.07438,-11.283664 11.37322,-12.839634 2.45187,-0.719972 6.6462,-0.508628 8.19031,0.412718 0.6048,0.360876 1.04764,0.81374 0.98407,1.006368 -0.0696,0.211115 -1.80385,0.352344 -4.36581,0.35555 -3.92045,0.0055 -4.39628,0.07777 -6.13213,0.939307 -3.56882,1.771247 -6.69844,5.769802 -7.98777,10.205527 -0.289,0.994348 -0.71134,3.405014 -0.93849,5.35704 -0.22716,1.952023 -0.56313,3.743544 -0.7466,3.981156 -0.4564,0.591066 -1.25543,0.543427 -1.49576,-0.08921 z m -4.16017,-0.58477 c -0.26782,-0.270531 -0.41059,-1.691616 -0.41059,-4.086946 0,-9.488397 -3.40825,-19.957586 -9.14885,-28.102629 -2.57495,-3.653435 -7.38161,-8.513804 -9.2583,-9.361718 -1.13459,-0.512624 -1.44703,-0.828137 -1.36864,-1.3821048 0.0799,-0.5647159 0.33058,-0.707876 1.17504,-0.6711104 2.28892,0.099578 7.98511,5.5658572 11.81943,11.3422662 3.95124,5.952559 6.40101,11.879354 7.82252,18.92534 0.74787,3.706954 1.55724,12.372342 1.23484,13.220958 -0.24027,0.632465 -1.28952,0.697679 -1.86545,0.115944 z"
       id="path422" />
    <path
       style="display:inline;fill:#775c2d;fill-opacity:1;stroke-width:0.32645"
       d="m 38.215121,186.54428 c -0.761833,-0.16366 -2.255858,-0.69217 -3.320036,-1.17449 -2.182322,-0.98909 -2.813092,-1.94078 -3.754704,-5.66501 -0.754301,-2.98338 -0.426303,-4.90803 1.324853,-7.77416 2.777694,-4.54625 13.170775,-18.01794 19.98482,-25.90467 4.446534,-5.14651 14.244232,-15.03913 16.243689,-16.40106 3.314717,-2.25781 7.473593,-5.36211 10.212296,-7.6227 6.335575,-5.22957 7.305966,-6.08381 11.856692,-10.43746 2.590606,-2.47842 8.218474,-7.76895 12.506369,-11.756756 4.2879,-3.987802 8.96596,-8.433011 10.39568,-9.878236 2.87744,-2.908638 9.17995,-8.358499 10.19541,-8.816111 0.79917,-0.360145 1.66051,-0.06449 1.66051,0.569933 0,0.41358 -4.26005,4.600887 -12.39707,12.185385 -4.33848,4.043881 -9.92087,13.619675 -14.723231,25.255555 -4.316586,10.45888 -9.372277,26.85632 -10.869489,35.25375 -0.660716,3.7057 -1.504267,12.07104 -1.243765,12.33412 0.257335,0.2599 23.121465,-22.84745 25.662475,-25.93548 6.35752,-7.72607 10.88418,-14.52965 11.78685,-17.71559 0.47765,-1.68593 2.11933,-11.74028 2.09606,-12.83735 -0.0472,-2.22848 -5.03887,10.81802 -5.97851,15.62591 -0.67501,3.45386 -1.75523,6.8894 -2.16618,6.8894 -0.1697,0 -0.39815,-0.2358 -0.50765,-0.52399 -0.30332,-0.79827 1.81042,-10.18279 2.83767,-12.59867 0.4987,-1.17283 1.22814,-3.16583 1.62098,-4.42889 0.39283,-1.26305 1.28525,-3.81012 1.98316,-5.66014 0.69791,-1.85002 1.79976,-5.24551 2.44856,-7.54553 1.21945,-4.323066 1.93246,-5.90695 2.43196,-5.402486 0.15759,0.159153 0.27999,2.196641 0.272,4.527756 -0.0153,4.471 -0.61306,9.01758 -2.06685,15.72073 -0.46959,2.16523 -1.51743,7.03702 -2.32854,10.82619 -3.31217,15.47329 -6.79471,26.52639 -9.85721,31.28539 -1.969,3.05974 -7.0294,7.96221 -10.7795,10.44309 -4.910399,3.24847 -8.681648,4.48318 -12.304903,4.02864 -3.894771,-0.48862 -8.225001,0.79045 -18.865875,5.5726 -1.697293,0.76278 -5.059407,1.95972 -7.47135,2.65986 -2.411944,0.70013 -5.898857,1.86915 -7.748704,2.59783 -1.849847,0.72867 -4.627236,1.55678 -6.171976,1.84024 -3.326807,0.61047 -11.00097,0.88418 -12.964491,0.4624 z m 13.566705,-3.43276 c 1.875946,-0.48894 3.548207,-1.02278 3.716129,-1.18633 0.188996,-0.18408 0.04964,-0.76728 -0.365893,-1.53094 -2.014764,-3.70295 -2.390808,-8.33964 -1.111118,-13.70011 1.944071,-8.14344 5.560657,-18.61623 9.006691,-26.08128 l 1.741593,-3.77277 -3.164082,3.28578 c -5.056727,5.25122 -7.538257,8.33815 -17.868299,22.2274 -3.92894,5.28266 -5.569874,8.61152 -6.203415,12.58447 -0.537094,3.36818 0.606498,6.90942 2.79752,8.66276 0.827552,0.66224 1.157408,0.70341 4.466795,0.55753 2.389449,-0.10534 4.703239,-0.45204 6.984079,-1.04651 z m 9.80118,-3.16943 c 2.865686,-1.05214 10.375601,-4.30383 10.923475,-4.72971 0.0535,-0.0416 -0.290539,-0.64654 -0.764523,-1.34432 -0.815513,-1.20057 -0.85288,-1.4273 -0.695809,-4.22132 0.190519,-3.38889 1.647938,-8.391 4.014607,-13.77879 l 1.441075,-3.28067 -0.339418,-3.11663 c -0.186672,-1.71415 -0.395209,-3.70715 -0.463406,-4.4289 -0.225592,-2.38739 0.448311,-8.94737 1.245004,-12.11921 0.431358,-1.71734 1.286613,-4.38593 1.900583,-5.93021 0.863741,-2.17253 0.986775,-2.71217 0.543824,-2.3852 -3.698557,2.73014 -8.970237,7.01341 -10.405841,8.45483 -1.442091,1.44793 -2.267887,2.76078 -4.130545,6.5667 -2.589469,5.29102 -5.307199,12.08265 -6.235737,15.58316 -0.335042,1.26305 -1.163661,4.14183 -1.84138,6.39729 -1.226935,4.08329 -1.232264,4.1261 -1.244821,10.00603 -0.01249,5.82722 -6.5e-4,5.93011 0.904601,7.79158 0.504457,1.03751 1.041267,1.88638 1.192896,1.88638 0.15164,0 1.931565,-0.60795 3.955415,-1.35101 z m 17.533185,-7.7068 c 2.787642,-1.25112 4.321886,-2.13565 4.772857,-2.75168 0.547905,-0.74843 0.729521,-1.76443 1.034192,-5.78546 0.654036,-8.63177 2.212927,-15.99767 5.842242,-27.60517 0.918315,-2.93704 1.6118,-5.51539 1.541066,-5.72969 -0.25831,-0.78262 -8.731977,12.03414 -12.307277,18.61526 -4.439519,8.17191 -7.75247,17.55377 -7.75247,21.95401 0,1.54791 1.103343,3.14163 2.177165,3.14481 0.321187,9.9e-4 2.432693,-0.82799 4.692225,-1.84208 z m 19.856588,-1.70088 c 4.303171,-2.06635 9.592841,-6.52659 12.606611,-10.62985 2.62077,-3.5682 3.63931,-5.48365 5.29495,-9.95769 2.07907,-5.61824 3.02748,-9.04022 5.58075,-20.13602 0.1007,-0.43781 -1.01194,0.89086 -2.47263,2.95259 -5.4102,7.63634 -12.36408,15.3966 -23.061243,25.73543 -7.684639,7.42721 -11.68078,11.49924 -11.68078,11.90257 0,0.26441 5.123522,1.29097 7.308919,1.46443 1.900187,0.15081 4.427561,-0.37307 6.423423,-1.33146 z M 80.367488,145.04175 c 2.986252,-5.44487 5.107748,-8.76248 7.657241,-11.97442 2.402178,-3.02635 6.14536,-8.91986 7.501215,-11.8104 0.63478,-1.35327 2.191093,-4.67494 3.458479,-7.38148 1.809087,-3.8634 5.115347,-10.21474 6.647187,-12.76931 0.48239,-0.80444 -1.81604,1.25454 -8.066568,7.22621 -3.757648,3.59001 -8.078813,7.63452 -9.602581,8.98779 -2.959148,2.62804 -4.650777,4.86762 -7.433984,9.84199 -2.740733,4.89844 -3.996984,11.25198 -3.610981,18.26262 0.175393,3.1856 0.435337,4.95956 0.679039,4.63418 0.03959,-0.0529 1.286552,-2.31063 2.770953,-5.01718 z m 141.143682,41.46042 c -4.25842,-0.63109 -5.89395,-1.04463 -9.05278,-2.28894 -1.81014,-0.71305 -5.26458,-1.86929 -7.67652,-2.56942 -2.41195,-0.70014 -5.77405,-1.89708 -7.47134,-2.65986 -10.7061,-4.81146 -14.98387,-6.06785 -18.96294,-5.56949 -3.73942,0.46837 -7.31198,-0.71104 -12.22179,-4.03477 -3.69733,-2.50296 -5.05533,-3.70666 -8.15166,-7.22554 -5.00959,-5.69321 -7.53087,-12.43267 -11.82027,-31.59578 -1.00373,-4.48426 -2.09965,-9.33425 -2.43538,-10.77774 -1.56755,-6.74003 -3.05928,-22.451619 -2.21282,-23.306478 0.34293,-0.346336 1.42086,2.264664 2.35929,5.714748 0.46023,1.69203 1.4299,4.64463 2.15482,6.56133 0.72492,1.91667 1.5834,4.37066 1.90775,5.45328 0.32435,1.08262 1.11989,3.46748 1.76786,5.29969 1.37726,3.89432 2.33573,8.11242 2.65021,11.6632 0.26624,3.00611 0.37608,3.20541 4.67737,8.48654 3.13798,3.85283 26.248,27.38671 26.57206,27.05943 0.2605,-0.26308 -0.58305,-8.62842 -1.24377,-12.33412 -2.46651,-13.83387 -10.90335,-37.48575 -17.6447,-49.46518 -3.49111,-6.20378 -5.59967,-8.920017 -10.2743,-13.235332 -2.41154,-2.226188 -5.69853,-5.336156 -7.3044,-6.91105 -2.74369,-2.690729 -2.8866,-2.896929 -2.36962,-3.419037 0.40359,-0.407602 0.72552,-0.47505 1.20854,-0.253196 1.12496,0.516695 7.19171,5.727621 10.08896,8.665724 2.82415,2.863979 17.37491,16.514021 20.09362,18.849781 0.82956,0.71272 3.40861,3.15423 5.73123,5.42559 2.32261,2.27136 5.02691,4.73035 6.00955,5.46442 0.98265,0.73407 2.8828,2.26117 4.22256,3.39354 1.33976,1.13238 4.25704,3.33112 6.48283,4.8861 8.19563,5.72559 21.03103,19.81302 34.24883,37.58968 6.17863,8.30966 6.94808,10.18002 5.89743,14.33549 -0.93764,3.70853 -1.57587,4.6775 -3.72146,5.64994 -1.04588,0.47403 -2.66948,1.00894 -3.608,1.1887 -2.0201,0.3869 -7.15647,0.3655 -9.90116,-0.0412 z m 8.07745,-2.93659 c 2.15031,-1.70823 3.29363,-5.28212 2.76011,-8.62784 -0.63353,-3.97295 -2.27447,-7.30181 -6.20341,-12.58447 -10.33004,-13.88925 -12.81157,-16.97618 -17.8683,-22.2274 l -3.16408,-3.28578 1.7416,3.77277 c 3.44188,7.45608 7.04516,17.88688 9.00966,26.08128 1.27233,5.30721 0.79678,10.78612 -1.20383,13.86977 -0.27912,0.43021 -0.43665,0.96864 -0.35007,1.1965 0.1269,0.33394 3.64624,1.35044 7.85056,2.26748 0.35732,0.0779 1.98211,0.15883 3.61065,0.17976 2.53884,0.0326 3.08303,-0.059 3.81711,-0.64207 z m -16.14114,-4.15886 c 0.90508,-1.86147 0.91703,-1.96436 0.90459,-7.79158 -0.0125,-5.87993 -0.0179,-5.92274 -1.24482,-10.00603 -0.67771,-2.25546 -1.50633,-5.13424 -1.84137,-6.39729 -0.92854,-3.50051 -3.64628,-10.29214 -6.23575,-15.58316 -1.86448,-3.80967 -2.68703,-5.11689 -4.13054,-6.56435 -1.70488,-1.70956 -10.42431,-8.62233 -10.62286,-8.42181 -0.0511,0.0516 0.35852,1.26707 0.91028,2.70102 2.03625,5.29184 3.40466,13.37506 2.99615,17.69823 -0.0682,0.72175 -0.27673,2.71475 -0.4634,4.4289 l -0.33942,3.11663 1.44107,3.28067 c 2.36667,5.38779 3.82409,10.3899 4.01461,13.77879 0.15707,2.79402 0.11971,3.02075 -0.69581,4.22132 -0.47398,0.69778 -0.81802,1.30184 -0.76452,1.34232 1.08652,0.82225 13.77761,6.03708 14.77242,6.07005 0.21018,0.007 0.7949,-0.8362 1.29937,-1.87371 z m -16.6087,-6.19914 c 0.94812,-1.0332 1.03262,-2.55376 0.32885,-5.91786 -1.79127,-8.56244 -7.72163,-20.44995 -16.5031,-33.08065 -1.50785,-2.16882 -2.92273,-4.28519 -3.14416,-4.70305 -0.88436,-1.66883 -0.55527,-0.24002 1.31394,5.70477 3.89996,12.40335 5.4537,19.63308 6.12594,28.50452 0.30327,4.00218 0.48847,5.04911 1.0156,5.74116 0.69969,0.91861 8.05694,4.54257 9.31993,4.59072 0.41721,0.0159 1.09774,-0.3544 1.543,-0.83961 z m -15.06742,-1.98411 c 1.57871,-0.30564 2.87037,-0.67947 2.87037,-0.83072 0,-0.39495 -4.04768,-4.51648 -11.68078,-11.89388 -10.69716,-10.33883 -17.65104,-18.09909 -23.06124,-25.73543 -1.46069,-2.06173 -2.57337,-3.3904 -2.47263,-2.95259 2.55327,11.0958 3.50168,14.51778 5.58075,20.13602 1.65525,4.47297 2.67355,6.38823 5.29425,9.95769 3.17857,4.3293 9.21684,9.26865 13.50844,11.05003 2.40085,0.99654 5.73706,1.08661 9.96084,0.26888 z m 11.18979,-25.7363 c 0.22849,-4.14805 -0.18956,-8.50057 -1.20865,-12.58388 -0.74347,-2.97893 -3.3347,-7.9056 -5.76971,-10.9698 -2.53428,-3.18913 -22.63599,-22.461415 -21.75008,-20.85264 0.0994,0.18044 1.05949,1.87818 2.13362,3.77277 2.31424,4.08192 5.1615,9.81192 7.58032,15.25508 1.81635,4.08739 4.98158,9.26179 7.94436,12.98715 2.40848,3.02839 5.10215,7.26475 7.94818,12.50021 1.57557,2.89836 2.52117,4.32903 2.6765,4.04946 0.13212,-0.23777 0.33257,-2.10903 0.44546,-4.15835 z m -42.58363,-18.06093 c -0.28684,-1.67897 -1.01431,-4.54011 -1.61659,-6.35809 -1.14877,-3.46751 -4.07949,-10.74185 -4.25593,-10.56366 -0.0981,0.099 0.0172,1.24333 0.80292,7.97439 0.19023,1.62973 0.56179,3.69655 0.82568,4.59294 0.6124,2.08019 4.49387,8.72591 4.65093,7.96315 0.0629,-0.30583 -0.12018,-1.92975 -0.40701,-3.60873 z"
       id="path508"
       sodipodi:insensitive="true" />
  </g>
</svg>
